<?xml version="1.0" standalone="no"?>
<!DOCTYPE svg PUBLIC "-//W3C//DTD SVG 20010904//EN"
 "http://www.w3.org/TR/2001/REC-SVG-20010904/DTD/svg10.dtd">
<svg version="1.0" xmlns="http://www.w3.org/2000/svg"
 width="256.000000pt" height="256.000000pt" viewBox="0 0 256.000000 256.000000"
 preserveAspectRatio="xMidYMid meet">

<g transform="translate(0.000000,256.000000) scale(0.100000,-0.100000)"
fill="#737373" stroke="none">
<path d="M1202 2389 c-51 -15 -107 -78 -122 -136 -12 -47 -16 -51 -62 -68
-127 -45 -247 -154 -309 -280 -55 -112 -69 -197 -69 -423 0 -176 -13 -430 -26
-498 -5 -28 -24 -41 -207 -147 -111 -64 -208 -122 -215 -128 -27 -28 0 -89 39
-89 8 0 88 43 178 95 90 53 165 94 167 92 7 -6 -33 -113 -67 -181 -18 -36 -54
-92 -81 -124 -53 -63 -58 -2 -28 -112 19 -19 33 -20 319 -20 l298 0 18 -46
c22 -58 66 -109 119 -137 59 -31 193 -31 252 0 53 28 97 79 119 137 l18 46
301 0 c318 0 327 1 340 46 5 15 -8 38 -49 90 -147 183 -201 398 -212 850 l-6
230 220 127 c122 70 226 134 233 142 18 22 8 58 -21 74 -25 14 -33 11 -228
-102 -112 -64 -204 -117 -206 -117 -1 0 -8 27 -14 60 -16 83 -81 206 -140 268
-58 60 -151 123 -219 147 -46 17 -50 21 -62 68 -29 113 -150 173 -278 136z
m148 -119 c11 -11 20 -23 20 -27 0 -5 -40 -8 -90 -8 -49 0 -90 3 -90 8 0 4 9
16 20 27 15 15 33 20 70 20 37 0 55 -5 70 -20z m74 -160 c212 -54 344 -189
378 -387 6 -40 10 -74 7 -76 -21 -17 -1072 -618 -1075 -615 -2 2 1 87 6 189 5
101 10 249 10 329 1 222 33 326 134 425 134 130 348 184 540 135z m386 -642
c0 -90 11 -288 21 -403 19 -207 71 -395 144 -518 20 -33 34 -61 32 -63 -2 -2
-330 -3 -730 -2 l-726 3 34 54 c39 62 88 190 107 281 9 47 19 67 37 79 45 29
1066 619 1074 620 4 1 7 -23 7 -51z m-395 -1128 c-24 -46 -70 -70 -135 -70
-65 0 -111 24 -135 70 l-16 30 151 0 151 0 -16 -30z"/>
</g>
</svg>
